<svg width="32" height="59" viewBox="0 0 32 59" fill="none" xmlns="http://www.w3.org/2000/svg">
<path d="M0 2L4.15843 6.00509L5.54773 0.401239L0 2ZM4.12612 3.52011C7.36697 5.32396 9.3824 9.41755 10.8181 14.753C12.2475 20.0652 13.0615 26.4352 14.0235 32.6309C14.9807 38.7955 16.0856 44.7959 18.1125 49.2581C19.1284 51.4945 20.3899 53.3777 22.0102 54.7037C23.6403 56.0377 25.6117 56.7892 28 56.7892V55.7892C25.8418 55.7892 24.0943 55.1171 22.6435 53.9298C21.1828 52.7344 20.0015 50.9986 19.023 48.8445C17.0611 44.5255 15.9714 38.6584 15.0117 32.4775C14.0568 26.3277 13.2317 19.8742 11.7838 14.4932C10.3421 9.13557 8.24182 4.66643 4.61245 2.64634L4.12612 3.52011Z" fill="#223C48"/>
<path d="M31.5 56.2892C31.5 56.6344 31.2407 57.0533 30.5866 57.4149C29.9499 57.7668 29.0364 58 28 58C26.9636 58 26.0501 57.7668 25.4134 57.4149C24.7593 57.0533 24.5 56.6344 24.5 56.2892C24.5 55.9441 24.7593 55.5252 25.4134 55.1636C26.0501 54.8117 26.9636 54.5785 28 54.5785C29.0364 54.5785 29.9499 54.8117 30.5866 55.1636C31.2407 55.5252 31.5 55.9441 31.5 56.2892Z" fill="white" stroke="#223C48"/>
</svg>
